<?xml version="1.0" encoding="UTF-8" standalone="no"?>
<svg
   xmlns:dc="http://purl.org/dc/elements/1.1/"
   xmlns:cc="http://creativecommons.org/ns#"
   xmlns:rdf="http://www.w3.org/1999/02/22-rdf-syntax-ns#"
   xmlns:svg="http://www.w3.org/2000/svg"
   xmlns="http://www.w3.org/2000/svg"
   id="svg111"
   xml:space="preserve"
   viewBox="0 0 1024 768"
   y="0px"
   x="0px"
   version="1.1"><metadata
     id="metadata117"><rdf:RDF><cc:Work
         rdf:about=""><dc:format>image/svg+xml</dc:format><dc:type
           rdf:resource="http://purl.org/dc/dcmitype/StillImage" /></cc:Work></rdf:RDF></metadata><defs
     id="defs115" /><style
     id="style2">
.bubbles circle {
  stroke: #093c7d;
  fill: none;
}
.bubbles &gt; g &gt; g:nth-of-type(3n) circle {
  stroke: #093c7d;
}
.bubbles &gt; g &gt; g:nth-of-type(4n) circle {
  stroke: #093c7d;
}

.bubbles-large {
  overflow: visible;
}
.bubbles-large &gt; g {
  -webkit-transform: translateY(1500px);
          transform: translateY(1500px);
  opacity: 0;
  will-change: transform, opacity;
}
.bubbles-large g:nth-of-type(1) {
  -webkit-animation: up 6.5s infinite;
          animation: up 6.5s infinite;
}
.bubbles-large g:nth-of-type(1) g {
  -webkit-transform: translateX(350px);
          transform: translateX(350px);
}
.bubbles-large g:nth-of-type(1) circle {
  -webkit-animation: wobble 3s infinite ease-in-out;
          animation: wobble 3s infinite ease-in-out;
}
.bubbles-large g:nth-of-type(2) {
  -webkit-animation: up 5.25s 250ms infinite;
          animation: up 5.25s 250ms infinite;
}
.bubbles-large g:nth-of-type(2) g {
  -webkit-transform: translateX(450px);
          transform: translateX(450px);
}
.bubbles-large g:nth-of-type(2) circle {
  -webkit-animation: wobble 3s infinite ease-in-out;
          animation: wobble 3s infinite ease-in-out;
}
.bubbles-large g:nth-of-type(3) {
  -webkit-animation: up 6s 750ms infinite;
          animation: up 6s 750ms infinite;
}
.bubbles-large g:nth-of-type(3) g {
  -webkit-transform: translateX(700px);
          transform: translateX(700px);
}
.bubbles-large g:nth-of-type(3) circle {
  -webkit-animation: wobble 3s infinite ease-in-out;
          animation: wobble 3s infinite ease-in-out;
}
.bubbles-large g:nth-of-type(4) {
  -webkit-animation: up 5.5s 1.5s infinite;
          animation: up 5.5s 1.5s infinite;
}
.bubbles-large g:nth-of-type(4) g {
  -webkit-transform: translateX(500px);
          transform: translateX(500px);
}
.bubbles-large g:nth-of-type(4) circle {
  -webkit-animation: wobble 3s infinite ease-in-out;
          animation: wobble 3s infinite ease-in-out;
}
.bubbles-large g:nth-of-type(5) {
  -webkit-animation: up 6.5s 4s infinite;
          animation: up 6.5s 4s infinite;
}
.bubbles-large g:nth-of-type(5) g {
  -webkit-transform: translateX(675px);
          transform: translateX(675px);
}
.bubbles-large g:nth-of-type(5) circle {
  -webkit-animation: wobble 3s infinite ease-in-out;
          animation: wobble 3s infinite ease-in-out;
}

.bubbles-small {
  overflow: visible;
}
.bubbles-small &gt; g {
  -webkit-transform: translateY(1400px);
          transform: translateY(1400px);
  opacity: 0;
  will-change: transform, opacity;
}
.bubbles-small g circle {
  -webkit-transform: scale(0);
          transform: scale(0);
}
.bubbles-small g:nth-of-type(1) {
  -webkit-animation: up 5.25s infinite;
          animation: up 5.25s infinite;
}
.bubbles-small g:nth-of-type(1) g {
  -webkit-transform: translateX(350px);
          transform: translateX(350px);
}
.bubbles-small g:nth-of-type(1) circle {
  -webkit-animation: wobble 3s infinite ease-in-out;
          animation: wobble 3s infinite ease-in-out;
}
.bubbles-small g:nth-of-type(2) {
  -webkit-animation: up 5.75s infinite;
          animation: up 5.75s infinite;
}
.bubbles-small g:nth-of-type(2) g {
  -webkit-transform: translateX(750px);
          transform: translateX(750px);
}
.bubbles-small g:nth-of-type(2) circle {
  -webkit-animation: wobble 3s infinite ease-in-out;
          animation: wobble 3s infinite ease-in-out;
}
.bubbles-small g:nth-of-type(3) {
  -webkit-animation: up 5.25s 250ms infinite;
          animation: up 5.25s 250ms infinite;
}
.bubbles-small g:nth-of-type(3) g {
  -webkit-transform: translateX(350px);
          transform: translateX(350px);
}
.bubbles-small g:nth-of-type(3) circle {
  -webkit-animation: wobble 3s 250ms infinite ease-in-out;
          animation: wobble 3s 250ms infinite ease-in-out;
}
.bubbles-small g:nth-of-type(4) {
  -webkit-animation: up 5.75s 325ms infinite;
          animation: up 5.75s 325ms infinite;
}
.bubbles-small g:nth-of-type(4) g {
  -webkit-transform: translateX(180px);
          transform: translateX(180px);
}
.bubbles-small g:nth-of-type(4) circle {
  -webkit-animation: wobble 3s 325ms infinite ease-in-out;
          animation: wobble 3s 325ms infinite ease-in-out;
}
.bubbles-small g:nth-of-type(5) {
  -webkit-animation: up 6s 125ms infinite;
          animation: up 6s 125ms infinite;
}
.bubbles-small g:nth-of-type(5) g {
  -webkit-transform: translateX(350px);
          transform: translateX(350px);
}
.bubbles-small g:nth-of-type(5) circle {
  -webkit-animation: wobble 3s 250ms infinite ease-in-out;
          animation: wobble 3s 250ms infinite ease-in-out;
}
.bubbles-small g:nth-of-type(6) {
  -webkit-animation: up 5.13s 250ms infinite;
          animation: up 5.13s 250ms infinite;
}
.bubbles-small g:nth-of-type(6) g {
  -webkit-transform: translateX(650px);
          transform: translateX(650px);
}
.bubbles-small g:nth-of-type(6) circle {
  -webkit-animation: wobble 3s 125ms infinite ease-in-out;
          animation: wobble 3s 125ms infinite ease-in-out;
}
.bubbles-small g:nth-of-type(7) {
  -webkit-animation: up 6.25s 350ms infinite;
          animation: up 6.25s 350ms infinite;
}
.bubbles-small g:nth-of-type(7) g {
  -webkit-transform: translateX(480px);
          transform: translateX(480px);
}
.bubbles-small g:nth-of-type(7) circle {
  -webkit-animation: wobble 3s 325ms infinite ease-in-out;
          animation: wobble 3s 325ms infinite ease-in-out;
}
.bubbles-small g:nth-of-type(8) {
  -webkit-animation: up 7s 200ms infinite;
          animation: up 7s 200ms infinite;
}
.bubbles-small g:nth-of-type(8) g {
  -webkit-transform: translateX(330px);
          transform: translateX(330px);
}
.bubbles-small g:nth-of-type(8) circle {
  -webkit-animation: wobble 3s 325ms infinite ease-in-out;
          animation: wobble 3s 325ms infinite ease-in-out;
}
.bubbles-small g:nth-of-type(9) {
  -webkit-animation: up 6.25s 233ms infinite;
          animation: up 6.25s 233ms infinite;
}
.bubbles-small g:nth-of-type(9) g {
  -webkit-transform: translateX(230px);
          transform: translateX(230px);
}
.bubbles-small g:nth-of-type(9) circle {
  -webkit-animation: wobble 3s 275ms infinite ease-in-out;
          animation: wobble 3s 275ms infinite ease-in-out;
}
.bubbles-small g:nth-of-type(10) {
  -webkit-animation: up 6s 900ms infinite;
          animation: up 6s 900ms infinite;
}
.bubbles-small g:nth-of-type(10) g {
  -webkit-transform: translateX(730px);
          transform: translateX(730px);
}
.bubbles-small g:nth-of-type(10) circle {
  -webkit-animation: wobble 2s 905ms infinite ease-in-out;
          animation: wobble 2s 905ms infinite ease-in-out;
}

@-webkit-keyframes wobble {
  33% {
    -webkit-transform: translateX(-50px);
            transform: translateX(-50px);
  }
  66% {
    -webkit-transform: translateX(50px);
            transform: translateX(50px);
  }
}

@keyframes wobble {
  33% {
    -webkit-transform: translateX(-50px);
            transform: translateX(-50px);
  }
  66% {
    -webkit-transform: translateX(50px);
            transform: translateX(50px);
  }
}

@-webkit-keyframes up {
  0% {
    opacity: 0;
  }
  10%, 90% {
    opacity: 1;
  }
  100% {
    opacity: 0;
    -webkit-transform: translateY(-768px);
            transform: translateY(-768px);
  }
}
@keyframes up {
  0% {
    opacity: 0;
  }
  10%, 90% {
    opacity: 1;
  }
  100% {
    opacity: 0;
    -webkit-transform: translateY(-768px);
            transform: translateY(-768px);
  }
}

</style>
    <g
     id="g98"
     transform="translate(150)"
     class="bubbles"><g
       style="overflow:visible;stroke-width:7"
       id="g34"
       class="bubbles-large"><g
         style="opacity:0"
         id="g8"><g
           id="g6"
           transform="translate(10,940)"><path
             id="circle4"
             d="M 70,35 A 35,35 0 0 1 35,70 35,35 0 0 1 0,35 35,35 0 0 1 35,0 35,35 0 0 1 70,35 Z"
             style="fill:none;stroke:#093c7d" /></g></g><g
         style="opacity:0"
         id="g14"><g
           id="g12"
           transform="translate(373,940)"><path
             id="circle10"
             d="M 70,35 A 35,35 0 0 1 35,70 35,35 0 0 1 0,35 35,35 0 0 1 35,0 35,35 0 0 1 70,35 Z"
             style="fill:none;stroke:#093c7d" /></g></g><g
         style="opacity:0"
         id="g20"><g
           id="g18"
           transform="translate(408,940)"><path
             id="circle16"
             d="M 70,35 A 35,35 0 0 1 35,70 35,35 0 0 1 0,35 35,35 0 0 1 35,0 35,35 0 0 1 70,35 Z"
             style="fill:none;stroke:#093c7d" /></g></g><g
         style="opacity:0"
         id="g26"><g
           id="g24"
           transform="translate(621,940)"><path
             id="circle22"
             d="M 70,35 A 35,35 0 0 1 35,70 35,35 0 0 1 0,35 35,35 0 0 1 35,0 35,35 0 0 1 70,35 Z"
             style="fill:none;stroke:#093c7d" /></g></g><g
         style="opacity:0"
         id="g32"><g
           id="g30"
           transform="translate(179,940)"><path
             id="circle28"
             d="M 70,35 A 35,35 0 0 1 35,70 35,35 0 0 1 0,35 35,35 0 0 1 35,0 35,35 0 0 1 70,35 Z"
             style="fill:none;stroke:#093c7d" /></g></g></g><g
       style="overflow:visible;stroke-width:4"
       id="g96"
       class="bubbles-small"><g
         style="opacity:0"
         id="g40"><g
           id="g38"
           transform="translate(147,984)"><path
             id="circle36"
             d="M 30,15 A 15,15 0 0 1 15,30 15,15 0 0 1 0,15 15,15 0 0 1 15,0 15,15 0 0 1 30,15 Z"
             style="fill:none;stroke:#093c7d" /></g></g><g
         style="opacity:0"
         id="g46"><g
           id="g44"
           transform="translate(255,984)"><path
             id="circle42"
             d="M 30,15 A 15,15 0 0 1 15,30 15,15 0 0 1 0,15 15,15 0 0 1 15,0 15,15 0 0 1 30,15 Z"
             style="fill:none;stroke:#093c7d" /></g></g><g
         style="opacity:0"
         id="g52"><g
           id="g50"
           transform="translate(573,984)"><path
             id="circle48"
             d="M 30,15 A 15,15 0 0 1 15,30 15,15 0 0 1 0,15 15,15 0 0 1 15,0 15,15 0 0 1 30,15 Z"
             style="fill:none;stroke:#093c7d" /></g></g><g
         style="opacity:0"
         id="g58"><g
           id="g56"
           transform="translate(429,984)"><path
             id="circle54"
             d="M 30,15 A 15,15 0 0 1 15,30 15,15 0 0 1 0,15 15,15 0 0 1 15,0 15,15 0 0 1 30,15 Z"
             style="fill:none;stroke:#093c7d" /></g></g><g
         style="opacity:0"
         id="g64"><g
           id="g62"
           transform="translate(91,984)"><path
             id="circle60"
             d="M 30,15 A 15,15 0 0 1 15,30 15,15 0 0 1 0,15 15,15 0 0 1 15,0 15,15 0 0 1 30,15 Z"
             style="fill:none;stroke:#093c7d" /></g></g><g
         style="opacity:0"
         id="g70"><g
           id="g68"
           transform="translate(640,984)"><path
             id="circle66"
             d="M 30,15 A 15,15 0 0 1 15,30 15,15 0 0 1 0,15 15,15 0 0 1 15,0 15,15 0 0 1 30,15 Z"
             style="fill:none;stroke:#093c7d" /></g></g><g
         style="opacity:0"
         id="g76"><g
           id="g74"
           transform="translate(321,984)"><path
             id="circle72"
             d="M 30,15 A 15,15 0 0 1 15,30 15,15 0 0 1 0,15 15,15 0 0 1 15,0 15,15 0 0 1 30,15 Z"
             style="fill:none;stroke:#093c7d" /></g></g><g
         style="opacity:0"
         id="g82"><g
           id="g80"
           transform="translate(376,984)"><path
             id="circle78"
             d="M 30,15 A 15,15 0 0 1 15,30 15,15 0 0 1 0,15 15,15 0 0 1 15,0 15,15 0 0 1 30,15 Z"
             style="fill:none;stroke:#093c7d" /></g></g><g
         style="opacity:0"
         id="g88"><g
           id="g86"
           transform="translate(376,984)"><path
             id="circle84"
             d="M 30,15 A 15,15 0 0 1 15,30 15,15 0 0 1 0,15 15,15 0 0 1 15,0 15,15 0 0 1 30,15 Z"
             style="fill:none;stroke:#093c7d" /></g></g><g
         style="opacity:0"
         id="g94"><g
           id="g92"
           transform="translate(497,984)"><path
             id="circle90"
             d="M 30,15 A 15,15 0 0 1 15,30 15,15 0 0 1 0,15 15,15 0 0 1 15,0 15,15 0 0 1 30,15 Z"
             style="fill:none;stroke:#093c7d" /></g></g></g></g><g
     id="fade"><g
       id="logo-group"><path
         style="fill:#093c7d;stroke-width:0.50999999"
         d="m 212.86603,340.26828 c -6.79977,0.003 -12.43978,0.009 -12.53335,0.0142 -0.0936,0.005 -0.34878,0.0286 -0.56712,0.053 -0.21834,0.0241 -0.53083,0.0697 -0.69472,0.10095 -0.1639,0.0312 -0.45086,0.0953 -0.63801,0.14206 -0.18715,0.0471 -0.47695,0.12959 -0.64397,0.18346 -0.16702,0.0542 -0.4605,0.16248 -0.65219,0.24103 -0.19168,0.0786 -0.55266,0.24783 -0.80219,0.376 -0.24953,0.12845 -0.58555,0.3156 -0.7469,0.41627 -0.16106,0.10066 -0.46333,0.31049 -0.67175,0.46645 -0.20842,0.15596 -0.54557,0.43413 -0.74945,0.61845 -0.20416,0.18403 -0.50559,0.48403 -0.67062,0.66636 -0.16475,0.18233 -0.42704,0.50049 -0.583,0.70692 -0.15567,0.20671 -0.38564,0.53848 -0.51041,0.73725 -0.12504,0.19906 -0.33176,0.57223 -0.45936,0.8297 -0.12789,0.25719 -0.27506,0.57619 -0.32751,0.7089 -0.0525,0.13242 -0.14519,0.38763 -0.20615,0.56712 -0.061,0.17921 -0.14774,0.46646 -0.19311,0.63801 -0.0454,0.17155 -0.1086,0.44405 -0.14064,0.60568 -0.0318,0.16135 -0.0771,0.44094 -0.10067,0.621 -0.0235,0.18006 -0.0559,0.54103 -0.0715,0.80248 -0.0196,0.32325 -0.0193,0.64112 8.7e-4,0.99529 0.0162,0.28611 0.0553,0.69869 0.087,0.91703 0.0315,0.21835 0.0964,0.56911 0.14433,0.77979 0.0476,0.21041 0.14916,0.57563 0.22515,0.81099 0.0763,0.23563 0.20331,0.5864 0.28243,0.77979 0.0791,0.19338 0.24301,0.5433 0.36409,0.77723 0.12108,0.23422 0.30029,0.55323 0.39811,0.7089 0.0978,0.15596 0.2674,0.40918 0.37686,0.56315 0.10973,0.15369 0.29461,0.39415 0.41116,0.53423 0.11654,0.14008 0.31305,0.36523 0.43696,0.5002 0.12364,0.13498 0.3553,0.36523 0.51467,0.51211 0.15907,0.1466 0.40747,0.36182 0.5518,0.47808 l 0.2623,0.21125 v 17.47637 l -9.04842,12.24923 c -4.97676,6.7371 -9.16466,12.42134 -9.30616,12.63203 -0.14178,0.2104 -0.39471,0.65077 -0.56258,0.97828 -0.16787,0.32751 -0.39415,0.80106 -0.50303,1.0523 -0.10889,0.25123 -0.28073,0.67855 -0.38224,0.94992 -0.10152,0.27108 -0.24386,0.68451 -0.31646,0.91845 -0.0726,0.23394 -0.18771,0.64226 -0.25577,0.90739 -0.0683,0.26513 -0.16304,0.67119 -0.21068,0.90257 -0.0476,0.23139 -0.1242,0.68424 -0.16985,1.00664 -0.0457,0.32241 -0.0998,0.75824 -0.12023,0.96893 -0.0244,0.25038 -0.0369,0.80502 -0.0363,1.60211 8.7e-4,0.96836 0.0113,1.30976 0.0505,1.65883 0.0272,0.24159 0.0751,0.61816 0.10662,0.8365 0.0312,0.21834 0.10152,0.62014 0.15596,0.89321 0.0544,0.27279 0.15624,0.71769 0.22657,0.98821 0.0703,0.27023 0.21181,0.74888 0.31475,1.06335 0.10293,0.31418 0.27533,0.7917 0.3828,1.06108 0.10776,0.26938 0.29235,0.69586 0.41003,0.94766 0.11768,0.25208 0.30398,0.62496 0.41371,0.82884 0.11003,0.20417 0.27676,0.50474 0.3709,0.66864 0.0944,0.16361 0.28214,0.47184 0.41797,0.68451 0.13554,0.21267 0.3502,0.53167 0.47666,0.7089 0.12647,0.17722 0.33914,0.46249 0.47241,0.63404 0.13328,0.17156 0.36636,0.45824 0.51807,0.63688 0.1517,0.17864 0.47978,0.53422 0.72931,0.79028 0.24925,0.25577 0.61306,0.60795 0.80815,0.78234 0.19509,0.17468 0.46334,0.40691 0.59576,0.51608 0.13271,0.10946 0.39415,0.31419 0.5813,0.45483 0.18715,0.14065 0.49991,0.36466 0.69472,0.49765 0.19509,0.13327 0.55011,0.35955 0.78915,0.50303 0.23876,0.14349 0.66636,0.38054 0.94992,0.52657 0.28328,0.14604 0.66212,0.3312 0.84133,0.41145 0.17949,0.0802 0.51579,0.22174 0.74746,0.31447 0.23195,0.093 0.62752,0.23847 0.87904,0.32326 0.2518,0.0848 0.68791,0.21721 0.96949,0.29377 0.28129,0.0768 0.68962,0.17864 0.90739,0.22599 0.21749,0.0476 0.58697,0.11881 0.82091,0.15823 0.23393,0.0397 0.57846,0.0913 0.76561,0.11512 0.18715,0.0238 0.55095,0.0649 0.80814,0.0916 l 0.46788,0.0482 21.70652,0.01 c 15.51923,0.007 21.88828,10e-4 22.34452,-0.0213 0.35105,-0.0173 0.82318,-0.0505 1.04918,-0.074 0.22628,-0.0233 0.58356,-0.0683 0.79396,-0.0998 0.21069,-0.0315 0.58074,-0.0956 0.82233,-0.14234 0.24188,-0.0471 0.63744,-0.13497 0.87903,-0.19537 0.24188,-0.0607 0.62525,-0.16674 0.8521,-0.23592 0.22685,-0.0692 0.58413,-0.18659 0.79397,-0.26088 0.20983,-0.0743 0.57931,-0.21664 0.82091,-0.31617 0.24187,-0.0995 0.733,-0.32666 1.0917,-0.50446 0.3587,-0.17779 0.86911,-0.45313 1.13424,-0.61192 0.26513,-0.15851 0.67998,-0.42278 0.92157,-0.58697 0.24188,-0.16418 0.59916,-0.4208 0.79397,-0.57023 0.19509,-0.14973 0.50133,-0.39557 0.68054,-0.54642 0.1795,-0.15086 0.5141,-0.45086 0.74378,-0.66694 0.22969,-0.21579 0.55493,-0.53961 0.72308,-0.71967 0.16787,-0.18006 0.4208,-0.46079 0.56173,-0.62383 0.14093,-0.16305 0.33347,-0.39245 0.42789,-0.50928 0.0944,-0.11711 0.29009,-0.37232 0.43527,-0.56712 0.14518,-0.19509 0.40748,-0.57137 0.583,-0.8365 0.17552,-0.26513 0.41088,-0.6417 0.52288,-0.8365 0.11173,-0.19509 0.32241,-0.5969 0.46788,-0.89322 0.14547,-0.29632 0.34821,-0.73669 0.45001,-0.97828 0.10208,-0.24188 0.25066,-0.61816 0.33034,-0.8365 0.08,-0.21834 0.20899,-0.60115 0.28725,-0.85068 0.078,-0.24953 0.19821,-0.67714 0.26683,-0.94993 0.0686,-0.27307 0.16333,-0.69047 0.2104,-0.92781 0.0468,-0.23762 0.11711,-0.65218 0.15568,-0.92157 0.0386,-0.26966 0.0922,-0.71967 0.11909,-1.0004 0.0351,-0.37004 0.0488,-0.78319 0.0491,-1.50286 0,-0.71883 -0.0133,-1.13708 -0.0485,-1.51705 -0.0269,-0.28866 -0.0743,-0.70323 -0.10548,-0.92157 -0.0312,-0.21834 -0.1018,-0.63319 -0.15709,-0.92157 -0.0553,-0.28866 -0.15625,-0.74151 -0.2243,-1.00664 -0.0678,-0.26513 -0.18744,-0.68621 -0.2657,-0.93575 -0.0783,-0.24953 -0.21181,-0.63886 -0.2966,-0.86485 -0.0851,-0.226 -0.23365,-0.59633 -0.33006,-0.82233 -0.0967,-0.22599 -0.29349,-0.64737 -0.43754,-0.93603 -0.14405,-0.28895 -0.31362,-0.61419 -0.37656,-0.72308 -0.0632,-0.10917 -0.13753,-0.26824 -0.1656,-0.35416 -0.0278,-0.0859 -0.11116,-0.24528 -0.18545,-0.35445 -0.074,-0.10917 -4.20633,-5.71062 -9.18281,-12.44772 l -9.04839,-12.24895 v -17.47609 l 0.24811,-0.19877 c 0.1364,-0.10946 0.38026,-0.32014 0.5416,-0.46845 0.16134,-0.1483 0.41485,-0.4018 0.56315,-0.56315 0.1483,-0.16134 0.37203,-0.42108 0.4968,-0.57704 0.12505,-0.15596 0.30851,-0.4001 0.40776,-0.54217 0.0992,-0.14234 0.26399,-0.39755 0.36607,-0.56712 0.10237,-0.16985 0.26769,-0.469 0.36778,-0.66523 0.0998,-0.19622 0.2416,-0.50247 0.31475,-0.68054 0.0732,-0.17808 0.18205,-0.46958 0.24216,-0.64794 0.0601,-0.17836 0.1415,-0.44235 0.18092,-0.58697 0.0394,-0.14461 0.10236,-0.41456 0.14036,-0.59973 0.0377,-0.18516 0.0885,-0.47921 0.11257,-0.6536 0.0244,-0.17439 0.057,-0.54756 0.0723,-0.8297 0.0182,-0.3312 0.0184,-0.67997 0.001,-0.98537 -0.015,-0.25974 -0.0465,-0.621 -0.0703,-0.80247 -0.0238,-0.18177 -0.0695,-0.46249 -0.10123,-0.62384 -0.032,-0.16163 -0.0953,-0.43413 -0.14065,-0.60568 -0.0451,-0.17155 -0.14121,-0.48347 -0.21323,-0.6933 -0.0717,-0.20984 -0.18233,-0.50332 -0.24557,-0.65219 -0.063,-0.14887 -0.20246,-0.44462 -0.30993,-0.65701 -0.10747,-0.21239 -0.29462,-0.54415 -0.41542,-0.73726 -0.12107,-0.1931 -0.31446,-0.47865 -0.43016,-0.6346 -0.1154,-0.15596 -0.30595,-0.39841 -0.42363,-0.53877 -0.1174,-0.14036 -0.39302,-0.43384 -0.61193,-0.65219 -0.21919,-0.21834 -0.55152,-0.51948 -0.73867,-0.6692 -0.18715,-0.14943 -0.46135,-0.3553 -0.60965,-0.45738 -0.14802,-0.10208 -0.39046,-0.25889 -0.53877,-0.34878 -0.14801,-0.0896 -0.46702,-0.26201 -0.7089,-0.38252 -0.24159,-0.1208 -0.62638,-0.29122 -0.85493,-0.37884 -0.22855,-0.0873 -0.57194,-0.20416 -0.76306,-0.25917 -0.19083,-0.055 -0.48687,-0.13129 -0.65758,-0.16985 -0.1707,-0.0386 -0.4846,-0.0953 -0.69755,-0.12619 -0.21296,-0.0309 -0.57194,-0.0692 -0.79823,-0.0851 -0.27221,-0.019 -4.59168,-0.0272 -12.77437,-0.0238 z m 0.0607,6.12291 c 8.24876,-0.003 12.26142,0.006 12.45622,0.0258 0.15823,0.0162 0.40635,0.0596 0.55125,0.0964 0.14518,0.0369 0.38422,0.11655 0.53082,0.17694 0.14689,0.0604 0.36948,0.17099 0.49425,0.24528 0.12504,0.0743 0.34197,0.22799 0.48205,0.34141 0.14036,0.11342 0.34112,0.30568 0.44661,0.42761 0.10548,0.12165 0.24754,0.30596 0.31617,0.40918 0.0683,0.10321 0.17552,0.28979 0.23847,0.41456 0.0627,0.12477 0.1449,0.30965 0.18318,0.41116 0.038,0.10123 0.0961,0.29944 0.12902,0.44009 0.0332,0.14064 0.0726,0.39897 0.0882,0.57421 0.0182,0.20898 0.0182,0.42789 0,0.63744 -0.0156,0.17552 -0.0536,0.42704 -0.0851,0.55946 -0.0312,0.13214 -0.089,0.32893 -0.12817,0.43725 -0.0391,0.10861 -0.12278,0.30029 -0.18601,0.42619 -0.0635,0.1259 -0.17128,0.31334 -0.23961,0.41627 -0.0683,0.10322 -0.21778,0.29462 -0.33234,0.42534 -0.11455,0.131 -0.31276,0.32071 -0.44065,0.42222 -0.12817,0.10123 -0.34396,0.25152 -0.48007,0.33347 -0.1361,0.0822 -0.37713,0.20019 -0.53592,0.26257 -0.1588,0.0621 -0.39472,0.13781 -0.52459,0.16815 -0.12987,0.0303 -0.35984,0.0686 -0.51126,0.0851 -0.15142,0.0164 -0.34594,0.0298 -0.43243,0.0298 h -0.15709 v 23.59049 l 9.69066,13.15775 9.69067,13.15775 0.20529,0.39017 c 0.11286,0.21466 0.28243,0.57166 0.37714,0.79369 0.0944,0.22174 0.22316,0.54727 0.28611,0.72308 0.0627,0.17581 0.16362,0.49538 0.2243,0.71032 0.061,0.21522 0.14915,0.57874 0.19594,0.80814 0.0471,0.22969 0.11399,0.6278 0.14887,0.88528 0.0547,0.40407 0.0635,0.59576 0.0641,1.40362 5.1e-4,0.74293 -0.01,1.01741 -0.0507,1.33273 -0.0284,0.21834 -0.0831,0.5691 -0.12137,0.77979 -0.0386,0.2104 -0.11569,0.56145 -0.17183,0.77979 -0.0559,0.21834 -0.1761,0.61447 -0.26683,0.88045 -0.091,0.26598 -0.23054,0.63603 -0.31022,0.82233 -0.0797,0.1863 -0.25038,0.54472 -0.37969,0.79624 -0.12902,0.25151 -0.33403,0.61645 -0.45539,0.81098 -0.12137,0.19452 -0.31334,0.48347 -0.42648,0.64226 -0.11314,0.15879 -0.33488,0.44746 -0.49254,0.64113 -0.15766,0.19395 -0.44944,0.52061 -0.64822,0.7262 -0.19906,0.20529 -0.49566,0.49084 -0.65956,0.6346 -0.16361,0.14377 -0.42534,0.36069 -0.5813,0.48234 -0.15596,0.12165 -0.4812,0.35161 -0.72308,0.51069 -0.24159,0.15936 -0.57222,0.36352 -0.73442,0.4537 -0.16248,0.0902 -0.4622,0.24329 -0.66636,0.34027 -0.20445,0.097 -0.55635,0.24726 -0.78263,0.33375 -0.22599,0.0865 -0.55776,0.20246 -0.73725,0.25776 -0.17921,0.055 -0.4537,0.13213 -0.60966,0.17098 -0.15596,0.0385 -0.45568,0.10322 -0.66636,0.14292 -0.21069,0.04 -0.53026,0.0913 -0.71032,0.11427 -0.18035,0.0229 -0.56315,0.0556 -0.85068,0.0726 -0.3692,0.0216 -6.8579,0.0275 -22.05955,0.0204 -16.28911,-0.008 -21.59848,-0.0182 -21.79159,-0.0434 -0.14036,-0.0184 -0.39556,-0.053 -0.56712,-0.0771 -0.17155,-0.0241 -0.44575,-0.07 -0.60965,-0.10208 -0.16362,-0.032 -0.42534,-0.0896 -0.5813,-0.12817 -0.15596,-0.0386 -0.43016,-0.11541 -0.60965,-0.17042 -0.17921,-0.0553 -0.51098,-0.17071 -0.73726,-0.25719 -0.226,-0.0862 -0.62808,-0.2623 -0.89321,-0.3916 -0.26513,-0.1293 -0.65247,-0.33857 -0.86117,-0.46475 -0.20842,-0.12619 -0.50191,-0.31447 -0.65219,-0.41854 -0.15001,-0.10378 -0.39415,-0.28469 -0.54245,-0.4018 -0.14802,-0.11683 -0.40975,-0.33715 -0.5813,-0.48943 -0.17156,-0.15199 -0.42165,-0.38904 -0.55606,-0.52685 -0.13441,-0.13753 -0.34595,-0.36693 -0.47043,-0.50984 -0.1242,-0.14291 -0.34084,-0.41088 -0.4812,-0.59548 -0.14036,-0.18459 -0.33176,-0.45057 -0.42534,-0.59094 -0.0936,-0.14036 -0.25719,-0.40208 -0.36352,-0.58129 -0.10634,-0.1795 -0.29377,-0.53026 -0.41655,-0.77979 -0.12278,-0.24954 -0.29802,-0.6451 -0.38961,-0.87904 -0.0919,-0.23394 -0.21835,-0.59122 -0.28158,-0.79397 -0.0635,-0.20274 -0.15341,-0.52175 -0.19991,-0.7089 -0.0468,-0.18715 -0.11115,-0.48715 -0.1432,-0.66636 -0.032,-0.1795 -0.0768,-0.46873 -0.0995,-0.64283 -0.023,-0.17411 -0.0561,-0.54416 -0.0737,-0.82233 -0.0181,-0.28668 -0.0238,-0.70181 -0.0133,-0.95928 0.0102,-0.24953 0.0371,-0.6261 0.0596,-0.8365 0.0224,-0.21069 0.0672,-0.54019 0.0993,-0.73272 0.0323,-0.19254 0.10293,-0.53054 0.15709,-0.75143 0.0539,-0.2209 0.14348,-0.54841 0.19906,-0.72762 0.0553,-0.1795 0.18374,-0.53678 0.28497,-0.79397 0.10152,-0.25747 0.29235,-0.68366 0.42421,-0.94709 0.13186,-0.26371 0.29519,-0.56343 0.36296,-0.66637 0.0675,-0.10293 4.45643,-6.0696 9.75248,-13.25926 l 9.62969,-13.07212 5.6e-4,-11.789 2.9e-4,-11.78901 h -0.17127 c -0.0941,0 -0.29405,-0.0136 -0.44406,-0.0303 -0.15,-0.0167 -0.38876,-0.0601 -0.53054,-0.0961 -0.14178,-0.036 -0.35984,-0.10491 -0.4846,-0.15312 -0.12477,-0.0482 -0.34169,-0.1534 -0.48205,-0.23365 -0.14037,-0.0803 -0.35786,-0.226 -0.48347,-0.32383 -0.12562,-0.0978 -0.3261,-0.28214 -0.44576,-0.40917 -0.11966,-0.12732 -0.28668,-0.33574 -0.37118,-0.46363 -0.0848,-0.12788 -0.207,-0.33913 -0.27222,-0.46929 -0.0649,-0.13043 -0.15511,-0.35019 -0.20047,-0.48857 -0.0451,-0.13866 -0.10436,-0.36381 -0.13158,-0.50048 -0.0352,-0.1761 -0.0496,-0.38508 -0.0496,-0.71656 0,-0.33148 0.0145,-0.54047 0.0496,-0.71656 0.0272,-0.13667 0.0865,-0.36182 0.13158,-0.50048 0.0454,-0.13838 0.13554,-0.35814 0.20047,-0.48857 0.0652,-0.13016 0.18744,-0.34141 0.27222,-0.4693 0.0845,-0.12788 0.25152,-0.3363 0.37118,-0.46362 0.11966,-0.12703 0.32014,-0.31135 0.44576,-0.40917 0.12561,-0.0978 0.3431,-0.24358 0.48347,-0.32383 0.14036,-0.0802 0.35728,-0.18545 0.48205,-0.23365 0.12476,-0.0482 0.34622,-0.11796 0.49197,-0.15511 0.14575,-0.0369 0.36268,-0.0786 0.48206,-0.0922 0.12051,-0.0139 5.61647,-0.0266 12.38561,-0.0286 z m 2.6615,9.70994 c -0.15596,-0.007 -0.35616,-0.001 -0.44491,0.0128 -0.0885,0.0142 -0.24102,0.0462 -0.33857,0.0715 -0.0975,0.0252 -0.25861,0.0828 -0.35814,0.12788 -0.0992,0.0451 -0.26597,0.13895 -0.37033,0.20814 -0.10435,0.0695 -0.26739,0.20189 -0.36239,0.29462 -0.095,0.0927 -0.23252,0.25208 -0.30539,0.35445 -0.0729,0.10208 -0.17779,0.28327 -0.2328,0.40237 -0.055,0.11909 -0.12704,0.31503 -0.15993,0.43498 -0.0482,0.17666 -0.0598,0.29944 -0.0601,0.64368 0,0.38082 0.008,0.45143 0.0757,0.67431 0.042,0.13696 0.12562,0.34764 0.18601,0.46787 0.0607,0.12051 0.16929,0.29774 0.24188,0.39415 0.0723,0.0961 0.20445,0.24187 0.29377,0.32382 0.0893,0.0817 0.24812,0.20445 0.35303,0.2725 0.1052,0.0681 0.28356,0.16334 0.39699,0.21154 0.11342,0.0482 0.32099,0.11116 0.46135,0.14036 0.14405,0.0295 0.37259,0.0525 0.52458,0.0525 0.15256,0 0.38083,-0.023 0.52629,-0.053 0.1415,-0.0292 0.34623,-0.0905 0.45483,-0.13611 0.10861,-0.0457 0.28668,-0.14065 0.39528,-0.21097 0.10861,-0.0706 0.26996,-0.19481 0.35871,-0.27591 0.0887,-0.0814 0.22515,-0.23422 0.30341,-0.33998 0.0783,-0.10549 0.19395,-0.29944 0.2569,-0.43102 0.0627,-0.13157 0.14093,-0.3414 0.17326,-0.46617 0.0326,-0.12476 0.0661,-0.35445 0.0746,-0.51041 0.0105,-0.19679 0.001,-0.36437 -0.0309,-0.54755 -0.0252,-0.14518 -0.0842,-0.36296 -0.131,-0.48432 -0.0468,-0.12108 -0.13271,-0.29859 -0.19113,-0.39415 -0.0584,-0.0958 -0.16985,-0.25123 -0.24783,-0.34594 -0.078,-0.0944 -0.22883,-0.2416 -0.33516,-0.32666 -0.10634,-0.0854 -0.27222,-0.19906 -0.36863,-0.25266 -0.0964,-0.0539 -0.24528,-0.12363 -0.3312,-0.15539 -0.0856,-0.0317 -0.23876,-0.0771 -0.34027,-0.10094 -0.10123,-0.0241 -0.31192,-0.0493 -0.46788,-0.0562 z m -4.87043,11.22841 c -0.19084,-0.007 -0.44462,2.8e-4 -0.564,0.015 -0.11938,0.0147 -0.33744,0.0573 -0.48461,0.0947 -0.14716,0.0371 -0.36834,0.10775 -0.49197,0.15681 -0.12335,0.0491 -0.32638,0.14802 -0.45115,0.21976 -0.12476,0.0717 -0.31815,0.19906 -0.42959,0.28271 -0.11144,0.0836 -0.31107,0.26598 -0.44377,0.40549 -0.13271,0.13951 -0.31107,0.35927 -0.3967,0.48885 -0.0856,0.12931 -0.19594,0.31617 -0.24528,0.41485 -0.0493,0.0987 -0.12647,0.27874 -0.17127,0.40011 -0.0448,0.12136 -0.11059,0.35331 -0.1466,0.51522 -0.0536,0.2416 -0.0652,0.37884 -0.0655,0.7625 0,0.33375 0.0142,0.53876 0.0496,0.71485 0.0275,0.13583 0.0828,0.34651 0.12335,0.46788 0.0403,0.12136 0.11682,0.31588 0.17013,0.43186 0.053,0.11597 0.18148,0.33914 0.28555,0.49623 0.11257,0.16957 0.29915,0.39528 0.46022,0.55663 0.14915,0.14915 0.36692,0.33857 0.48375,0.4208 0.11711,0.0822 0.33687,0.21239 0.48886,0.28895 0.1517,0.0766 0.37458,0.17212 0.49509,0.21267 0.12052,0.0403 0.34708,0.099 0.50361,0.12987 0.19934,0.0394 0.4035,0.0567 0.68167,0.0576 0.24925,8.7e-4 0.49737,-0.0165 0.66637,-0.0462 0.1483,-0.0258 0.39925,-0.0907 0.55776,-0.14377 0.1588,-0.053 0.3692,-0.13696 0.46788,-0.1863 0.0987,-0.0493 0.28809,-0.16106 0.42052,-0.24868 0.1327,-0.0873 0.36012,-0.27392 0.50558,-0.41428 0.14547,-0.14064 0.33177,-0.34509 0.41372,-0.45483 0.082,-0.10945 0.20104,-0.28838 0.26512,-0.39755 0.0638,-0.10917 0.16163,-0.30965 0.21749,-0.44519 0.0556,-0.13582 0.13413,-0.37827 0.17468,-0.53876 0.0581,-0.2311 0.0766,-0.38791 0.0885,-0.75002 0.0119,-0.35729 0.005,-0.52203 -0.0338,-0.75002 -0.0269,-0.16077 -0.0865,-0.40775 -0.13214,-0.54868 -0.046,-0.14122 -0.13923,-0.37175 -0.20757,-0.5124 -0.068,-0.14064 -0.19565,-0.35558 -0.28327,-0.4778 -0.0873,-0.12193 -0.21948,-0.29178 -0.2932,-0.3777 -0.0734,-0.0856 -0.22317,-0.23195 -0.33234,-0.32496 -0.10917,-0.093 -0.28185,-0.22458 -0.38394,-0.29178 -0.10208,-0.0675 -0.28724,-0.17354 -0.41116,-0.23592 -0.1242,-0.0621 -0.31844,-0.14632 -0.43186,-0.18715 -0.11314,-0.0405 -0.33347,-0.1001 -0.48942,-0.13186 -0.15596,-0.0318 -0.43952,-0.063 -0.63036,-0.0695 z m 6.48133,13.17448 c -0.2311,0.002 -0.45823,0.009 -0.50502,0.015 -0.0468,0.006 -0.21125,0.0366 -0.36523,0.0686 -0.15397,0.032 -0.39017,0.097 -0.52458,0.14433 -0.13441,0.0474 -0.3536,0.14093 -0.48687,0.20785 -0.13328,0.0669 -0.36296,0.2019 -0.51041,0.29973 -0.17127,0.11399 -0.39132,0.30142 -0.60994,0.52033 -0.21862,0.21834 -0.40634,0.43867 -0.52005,0.60965 -0.0975,0.14717 -0.23904,0.39585 -0.31418,0.55295 -0.0751,0.1568 -0.17638,0.41002 -0.22487,0.56258 -0.0482,0.15227 -0.10974,0.39471 -0.13639,0.53876 -0.0349,0.18687 -0.0482,0.40691 -0.0476,0.77185 0.001,0.41882 0.0125,0.564 0.0647,0.80815 0.0349,0.16361 0.10123,0.41087 0.14745,0.54897 0.0459,0.13809 0.14802,0.37884 0.22629,0.53479 0.0786,0.15596 0.20444,0.37459 0.27987,0.48603 0.0754,0.11143 0.21947,0.2983 0.32014,0.41569 0.10038,0.11712 0.26456,0.2847 0.36466,0.37232 0.10009,0.0876 0.28412,0.23223 0.40889,0.32155 0.12476,0.0893 0.36494,0.23196 0.53338,0.31646 0.16872,0.0848 0.41768,0.19112 0.55294,0.23621 0.13554,0.0454 0.38054,0.11086 0.54415,0.14574 0.24415,0.0522 0.38933,0.0638 0.80814,0.0647 0.36949,5.1e-4 0.5847,-0.0127 0.77979,-0.0488 0.14831,-0.0275 0.41769,-0.0995 0.5986,-0.15993 0.1812,-0.0604 0.43073,-0.16106 0.55464,-0.22316 0.12364,-0.0624 0.34566,-0.19339 0.49283,-0.29122 0.17127,-0.11371 0.39131,-0.30114 0.60994,-0.52004 0.21891,-0.21863 0.40634,-0.43867 0.52033,-0.60994 0.0978,-0.14745 0.2328,-0.37714 0.29973,-0.51041 0.0669,-0.13327 0.16049,-0.35247 0.20785,-0.48687 0.0473,-0.13441 0.11597,-0.37686 0.15227,-0.53877 0.057,-0.25577 0.0658,-0.37061 0.0658,-0.87563 0,-0.45625 -0.0111,-0.63291 -0.0519,-0.82176 -0.0284,-0.13214 -0.0899,-0.36182 -0.13697,-0.5104 -0.0468,-0.14831 -0.15454,-0.41032 -0.23932,-0.58187 -0.0851,-0.17155 -0.24046,-0.43271 -0.34538,-0.58016 -0.10463,-0.14774 -0.31248,-0.39018 -0.46135,-0.53877 -0.14887,-0.14887 -0.37231,-0.34282 -0.49623,-0.43101 -0.12391,-0.0885 -0.31787,-0.2138 -0.43072,-0.27874 -0.11286,-0.0652 -0.32355,-0.16645 -0.46788,-0.22514 -0.14433,-0.059 -0.39018,-0.1398 -0.54613,-0.18007 -0.15596,-0.0403 -0.37544,-0.0868 -0.48744,-0.10349 -0.11229,-0.0167 -0.39302,-0.0284 -0.62383,-0.0261 z m -14.68302,8.67722 c -0.0936,0.002 -0.34368,0.0139 -0.55549,0.0261 -0.21182,0.0122 -0.54359,0.0422 -0.73726,0.0669 -0.19367,0.0247 -0.53054,0.0786 -0.74917,0.11938 l -0.39698,0.0746 -6.60695,8.94234 c -3.63354,4.91807 -6.65487,9.03026 -6.71385,9.13801 -0.059,0.10775 -0.15737,0.32864 -0.21862,0.49113 -0.0613,0.16248 -0.14377,0.42052 -0.18347,0.57307 -0.0397,0.15284 -0.0913,0.42364 -0.11455,0.602 -0.0235,0.17836 -0.0425,0.49538 -0.0425,0.70436 0,0.20899 0.0193,0.52629 0.0425,0.7055 0.0235,0.17892 0.0859,0.49538 0.13837,0.70323 0.0525,0.20756 0.14263,0.5053 0.20048,0.66126 0.0576,0.15596 0.17354,0.42392 0.25747,0.59548 0.0876,0.17864 0.25237,0.44519 0.38593,0.62383 0.12817,0.17155 0.4001,0.47865 0.6037,0.68225 0.20388,0.20359 0.48545,0.45511 0.62581,0.55861 0.14037,0.10378 0.37657,0.25804 0.52516,0.34282 0.1483,0.0848 0.40917,0.2138 0.57931,0.28668 0.17042,0.0726 0.44462,0.16957 0.60937,0.21494 0.16475,0.0456 0.40804,0.10491 0.54047,0.13185 l 0.24102,0.0493 21.67816,0.008 c 19.23444,0.008 21.71559,0.004 22.00993,-0.0343 0.18233,-0.0235 0.48205,-0.0817 0.66637,-0.12902 0.18403,-0.0474 0.47184,-0.14178 0.63971,-0.20984 0.16787,-0.0681 0.42307,-0.18914 0.56712,-0.26938 0.14404,-0.08 0.38281,-0.23139 0.53054,-0.33602 0.14745,-0.10463 0.40804,-0.32439 0.57846,-0.48801 0.1707,-0.1639 0.40634,-0.41258 0.52373,-0.55294 0.11712,-0.14036 0.302,-0.38933 0.41089,-0.55294 0.1086,-0.1639 0.26002,-0.42903 0.3363,-0.58952 0.0763,-0.1605 0.18233,-0.42194 0.23535,-0.5813 0.0533,-0.15936 0.12193,-0.40436 0.15256,-0.54472 0.0307,-0.14036 0.0715,-0.3811 0.0905,-0.53479 0.0224,-0.18091 0.0287,-0.46618 0.0182,-0.80815 -0.0128,-0.41371 -0.0323,-0.60568 -0.0902,-0.883 -0.0409,-0.19509 -0.12307,-0.50134 -0.1829,-0.68055 -0.0598,-0.17949 -0.16049,-0.44093 -0.22373,-0.5813 -0.0964,-0.21408 -0.72279,-1.10134 -3.87966,-5.49567 -2.07056,-2.88239 -3.77618,-5.24785 -3.79007,-5.25664 -0.0142,-0.009 -0.0848,0.0261 -0.15737,0.0774 -0.0726,0.051 -0.31674,0.21636 -0.54302,0.36721 -0.226,0.15057 -0.55153,0.35757 -0.72308,0.45965 -0.17155,0.10209 -0.46844,0.27109 -0.65984,0.37572 -0.19112,0.10463 -0.50417,0.26456 -0.69558,0.3553 -0.1914,0.091 -0.51948,0.23763 -0.72903,0.32581 -0.20955,0.0882 -0.62043,0.24188 -0.91306,0.34169 -0.29235,0.0998 -0.73641,0.23281 -0.98679,0.29547 -0.2501,0.063 -0.62979,0.14632 -0.84387,0.18545 -0.21409,0.0391 -0.55522,0.0913 -0.75796,0.11569 -0.20275,0.0247 -0.65559,0.0519 -1.00664,0.0607 -0.38139,0.01 -0.81041,0.003 -1.06675,-0.017 -0.23592,-0.0182 -0.59321,-0.0576 -0.79397,-0.0876 -0.20076,-0.03 -0.49283,-0.0811 -0.64879,-0.11342 -0.15595,-0.032 -0.42704,-0.097 -0.60227,-0.14405 -0.17525,-0.0471 -0.50701,-0.14972 -0.73726,-0.22827 -0.23026,-0.0783 -0.58442,-0.21267 -0.78717,-0.29859 -0.20274,-0.0856 -0.58611,-0.26796 -0.85181,-0.4052 -0.2657,-0.13696 -0.62298,-0.33545 -0.79397,-0.44066 -0.17098,-0.10548 -0.48942,-0.31361 -0.70776,-0.46248 -0.21834,-0.14887 -0.54359,-0.38536 -0.72308,-0.52516 -0.17921,-0.14007 -0.43385,-0.34509 -0.56542,-0.45596 -0.13185,-0.11087 -0.38054,-0.33092 -0.55294,-0.48914 -0.17241,-0.15795 -0.52629,-0.50247 -0.78603,-0.76561 -0.25974,-0.26286 -0.64113,-0.66949 -0.84728,-0.90342 -0.20615,-0.23394 -0.55379,-0.61476 -0.7727,-0.84615 -0.21891,-0.23138 -0.5813,-0.59207 -0.80559,-0.80134 -0.22401,-0.20927 -0.55918,-0.507 -0.74463,-0.66126 -0.18517,-0.15454 -0.48801,-0.39443 -0.67232,-0.53366 -0.1846,-0.13894 -0.50757,-0.36749 -0.71826,-0.50786 -0.2104,-0.14036 -0.5053,-0.32666 -0.65502,-0.41428 -0.14944,-0.0876 -0.44292,-0.24868 -0.65219,-0.35757 -0.20898,-0.10889 -0.56485,-0.27675 -0.79113,-0.37316 -0.226,-0.0961 -0.61533,-0.24301 -0.86486,-0.3261 -0.24953,-0.0834 -0.60682,-0.1897 -0.79397,-0.23648 -0.18715,-0.0468 -0.47411,-0.11059 -0.63801,-0.14178 -0.16361,-0.0312 -0.45086,-0.0768 -0.63801,-0.10123 -0.18715,-0.0244 -0.55719,-0.0567 -0.82232,-0.0723 -0.26513,-0.0153 -0.55862,-0.0261 -0.65219,-0.0241 z"
         id="icon" /><g
         transform="translate(173.62612)"
         style="font-variant-ligatures:none;fill:#ffffff"
         aria-label="codelab"
         id="title"><path
           d="m 397.01769,-33.192 c -3.744,-4.32 -8.496,-6.48 -14.112,-6.48 -3.744,0 -7.128,0.864 -10.08,2.592 -3.024,1.728 -5.328,4.104 -6.984,7.128 -1.656,3.024 -2.448,6.48 -2.448,10.296 0,3.744 0.792,7.2 2.52,10.224 1.728,3.024 4.104,5.4 7.128,7.128 3.024,1.728 6.408,2.592 10.224,2.592 5.184,0 9.504,-1.584 12.96,-4.824 0.576,-0.576 0.864,-1.224 0.864,-1.944 0,-0.936 -0.504,-1.8 -1.368,-2.592 -0.576,-0.432 -1.224,-0.648 -1.872,-0.648 -0.864,0 -1.8,0.36 -2.664,1.008 -2.016,1.728 -4.68,2.52 -7.92,2.52 -2.52,0 -4.752,-0.576 -6.696,-1.728 -1.944,-1.152 -3.456,-2.736 -4.536,-4.752 -1.08,-2.016 -1.584,-4.392 -1.584,-6.984 0,-4.032 1.152,-7.344 3.456,-9.792 2.304,-2.448 5.256,-3.744 9,-3.744 1.8,0 3.384,0.36 4.824,0.936 1.44,0.576 2.736,1.512 3.96,2.808 0.72,0.864 1.656,1.296 2.808,1.296 0.576,0 1.152,-0.144 1.656,-0.504 1.008,-0.72 1.584,-1.584 1.584,-2.664 0,-0.72 -0.288,-1.296 -0.72,-1.872 z"
           transform="matrix(1.797447,0,0,1.797447,-510.64089,434.21348)"
           style="font-variant-ligatures:none"
           id="path184871" /><path
           d="m 436.73019,-37.08 c -3.024,-1.728 -6.408,-2.592 -10.152,-2.592 -3.888,0 -7.272,0.864 -10.296,2.592 -3.024,1.728 -5.4,4.032 -7.056,7.056 -1.728,3.024 -2.52,6.48 -2.52,10.368 0,3.888 0.792,7.272 2.52,10.296 1.656,3.024 4.032,5.4 7.056,7.128 3.024,1.728 6.408,2.52 10.296,2.52 3.816,0 7.2,-0.792 10.224,-2.52 3.024,-1.728 5.328,-4.104 7.056,-7.128 1.656,-3.024 2.52,-6.408 2.52,-10.296 0,-3.888 -0.864,-7.344 -2.592,-10.368 -1.728,-3.024 -4.032,-5.328 -7.056,-7.056 z m -16.776,5.616 c 1.944,-1.152 4.176,-1.728 6.624,-1.728 2.448,0 4.608,0.576 6.552,1.728 1.944,1.152 3.456,2.808 4.536,4.824 1.08,2.088 1.656,4.392 1.656,6.984 0,2.592 -0.576,4.968 -1.656,6.984 -1.08,2.016 -2.592,3.6 -4.536,4.752 -1.944,1.152 -4.104,1.728 -6.552,1.728 -2.448,0 -4.68,-0.576 -6.624,-1.728 -1.944,-1.152 -3.456,-2.736 -4.536,-4.752 -1.152,-2.016 -1.656,-4.392 -1.656,-6.984 0,-2.592 0.504,-4.896 1.656,-6.984 1.08,-2.016 2.592,-3.672 4.536,-4.824 z"
           transform="matrix(1.797447,0,0,1.797447,-510.64089,434.21348)"
           style="font-variant-ligatures:none"
           id="path184873" /><path
           d="m 455.29044,-19.728 c 0,3.816 0.864,7.2 2.592,10.224 1.728,3.024 4.176,5.472 7.2,7.2 3.024,1.728 6.408,2.592 10.08,2.592 h 16.344 c 1.008,0 1.8,-0.288 2.448,-0.936 0.72,-0.72 1.008,-1.512 1.008,-2.448 V -52.56 c 0,-1.08 -0.288,-1.944 -1.008,-2.664 -0.648,-0.648 -1.512,-1.008 -2.664,-1.008 -1.008,0 -1.872,0.36 -2.592,1.008 -0.72,0.72 -1.08,1.584 -1.08,2.664 v 19.44 c -1.656,-2.016 -3.672,-3.6 -6.12,-4.824 -2.376,-1.152 -4.968,-1.728 -7.776,-1.728 -3.456,0 -6.552,0.864 -9.36,2.592 -2.808,1.8 -5.04,4.176 -6.624,7.2 -1.584,3.024 -2.448,6.48 -2.448,10.152 z m 7.056,0 c 0,-2.52 0.576,-4.824 1.728,-6.84 1.152,-2.016 2.664,-3.672 4.608,-4.824 1.944,-1.152 4.104,-1.8 6.48,-1.8 2.448,0 4.608,0.648 6.552,1.8 1.944,1.152 3.456,2.808 4.536,4.824 1.152,2.016 1.656,4.32 1.656,6.84 0,2.592 -0.504,4.896 -1.656,6.912 -1.08,2.088 -2.592,3.744 -4.536,4.896 -1.944,1.152 -4.104,1.728 -6.552,1.728 -2.376,0 -4.536,-0.576 -6.48,-1.728 -1.944,-1.152 -3.456,-2.808 -4.608,-4.896 -1.152,-2.016 -1.728,-4.32 -1.728,-6.912 z"
           transform="matrix(1.797447,0,0,1.797447,-510.64089,434.21348)"
           style="font-variant-ligatures:none"
           id="path184875" /><path
           d="m 542.41944,-18 c 0.576,-0.576 0.936,-1.368 0.936,-2.304 0,-3.744 -0.72,-7.128 -2.16,-10.08 -1.44,-2.88 -3.528,-5.184 -6.192,-6.84 -2.736,-1.584 -5.904,-2.448 -9.576,-2.448 -3.744,0 -7.128,0.864 -10.08,2.592 -2.952,1.728 -5.256,4.104 -6.912,7.128 -1.656,3.024 -2.448,6.48 -2.448,10.296 0,3.888 0.864,7.272 2.592,10.296 1.728,3.024 4.176,5.4 7.344,7.128 3.096,1.728 6.624,2.52 10.584,2.52 2.16,0 4.464,-0.36 6.912,-1.224 2.448,-0.792 4.464,-1.872 6.12,-3.168 0.72,-0.576 1.152,-1.296 1.152,-2.16 0,-0.864 -0.432,-1.728 -1.296,-2.448 -0.576,-0.432 -1.296,-0.72 -2.16,-0.72 -0.936,0 -1.728,0.288 -2.376,0.792 -1.008,0.792 -2.304,1.44 -3.888,1.944 -1.584,0.576 -3.024,0.792 -4.464,0.792 -3.672,0 -6.768,-1.008 -9.288,-3.096 -2.52,-2.016 -4.032,-4.752 -4.536,-8.136 h 27.36 c 0.936,0 1.728,-0.288 2.376,-0.864 z m -25.56,-12.6 c 2.16,-1.872 5.04,-2.88 8.568,-2.88 3.168,0 5.688,1.008 7.704,2.88 1.944,1.944 3.168,4.536 3.6,7.704 h -23.976 c 0.576,-3.168 1.944,-5.76 4.104,-7.704 z"
           transform="matrix(1.797447,0,0,1.797447,-510.64089,434.21348)"
           style="font-variant-ligatures:none"
           id="path184877" /><path
           d="m 552.29019,-55.224 c -0.72,0.72 -1.008,1.584 -1.008,2.592 v 39.312 c 0,2.592 0.432,4.896 1.368,6.912 0.864,2.016 2.16,3.6 3.816,4.752 1.656,1.152 3.528,1.656 5.616,1.656 h 0.144 c 1.44,0 2.592,-0.288 3.528,-1.008 0.864,-0.648 1.368,-1.512 1.368,-2.592 0,-1.008 -0.36,-1.872 -0.936,-2.592 -0.576,-0.648 -1.368,-1.008 -2.304,-1.008 h -1.8 c -1.08,0 -1.944,-0.576 -2.592,-1.728 -0.72,-1.152 -1.008,-2.592 -1.008,-4.392 v -39.312 c 0,-1.008 -0.36,-1.872 -1.008,-2.592 -0.72,-0.648 -1.584,-1.008 -2.592,-1.008 -1.08,0 -1.944,0.36 -2.592,1.008 z"
           transform="matrix(1.797447,0,0,1.797447,-510.64089,434.21348)"
           style="font-variant-ligatures:none"
           id="path184879" /><path
           d="m 609.92506,-19.656 c 0,-3.672 -0.936,-7.128 -2.664,-10.152 -1.728,-3.024 -4.104,-5.472 -7.128,-7.2 -3.024,-1.728 -6.336,-2.664 -10.008,-2.664 -3.744,0 -7.128,0.936 -10.152,2.664 -3.024,1.728 -5.4,4.176 -7.128,7.2 -1.728,3.024 -2.592,6.408 -2.592,10.152 0,3.744 0.792,7.2 2.376,10.224 1.584,3.024 3.816,5.4 6.624,7.128 2.88,1.8 5.976,2.664 9.432,2.664 h 17.784 c 0.936,0 1.728,-0.36 2.448,-1.008 0.648,-0.648 1.008,-1.44 1.008,-2.448 V -3.6 Z m -30.96,6.912 c -1.152,-2.016 -1.656,-4.32 -1.656,-6.912 0,-2.52 0.504,-4.824 1.656,-6.912 1.152,-2.016 2.664,-3.672 4.608,-4.824 1.944,-1.152 4.104,-1.8 6.552,-1.8 2.376,0 4.536,0.648 6.48,1.8 1.944,1.152 3.456,2.808 4.608,4.824 1.08,2.088 1.656,4.392 1.656,6.912 0,2.592 -0.576,4.896 -1.656,6.912 -1.152,2.016 -2.664,3.672 -4.608,4.824 -1.944,1.152 -4.104,1.728 -6.48,1.728 -2.448,0 -4.608,-0.576 -6.552,-1.728 -1.944,-1.152 -3.456,-2.808 -4.608,-4.824 z"
           transform="matrix(1.797447,0,0,1.797447,-510.64089,434.21348)"
           style="font-variant-ligatures:none"
           id="path184881" /><path
           d="m 658.14931,-29.88 c -1.584,-3.024 -3.816,-5.4 -6.624,-7.2 -2.808,-1.728 -5.904,-2.592 -9.36,-2.592 -2.808,0 -5.4,0.576 -7.776,1.728 -2.448,1.152 -4.464,2.808 -6.12,4.824 v -19.44 c 0,-1.08 -0.36,-1.944 -1.08,-2.664 -0.72,-0.648 -1.584,-1.008 -2.592,-1.008 -1.152,0 -2.016,0.36 -2.664,1.008 -0.72,0.72 -1.008,1.584 -1.008,2.664 v 49.464 c 0,0.936 0.288,1.728 1.008,2.376 0.648,0.72 1.44,1.008 2.448,1.008 h 16.344 c 3.672,0 7.056,-0.864 10.08,-2.592 3.024,-1.728 5.4,-4.176 7.2,-7.2 1.728,-3.024 2.592,-6.408 2.592,-10.224 0,-3.672 -0.864,-7.128 -2.448,-10.152 z m -6.336,17.064 c -1.152,2.088 -2.664,3.744 -4.608,4.896 -1.944,1.152 -4.104,1.728 -6.48,1.728 -2.448,0 -4.608,-0.576 -6.552,-1.728 -1.944,-1.152 -3.456,-2.808 -4.536,-4.896 -1.152,-2.016 -1.656,-4.32 -1.656,-6.912 0,-2.52 0.504,-4.824 1.656,-6.84 1.08,-2.016 2.592,-3.672 4.536,-4.824 1.944,-1.152 4.104,-1.8 6.552,-1.8 2.376,0 4.536,0.648 6.48,1.8 1.944,1.152 3.456,2.808 4.608,4.824 1.152,2.016 1.728,4.32 1.728,6.84 0,2.592 -0.576,4.896 -1.728,6.912 z"
           transform="matrix(1.797447,0,0,1.797447,-510.64089,434.21348)"
           style="font-variant-ligatures:none"
           id="path184883" /></g></g></g></svg>